<svg width="24" height="24" viewBox="0 0 24 24" fill="none" xmlns="http://www.w3.org/2000/svg">
<circle cx="11.6938" cy="11.6133" r="11.5" fill="#299B01"/>
<g clip-path="url(#clip0_1_20307)">
<path d="M15.4609 12.7925H12.3216V15.9319C12.3216 16.2772 12.039 16.5598 11.6937 16.5598C11.3484 16.5598 11.0658 16.2772 11.0658 15.9319V12.7925H7.92646C7.58113 12.7925 7.29858 12.51 7.29858 12.1646C7.29858 11.8193 7.58113 11.5368 7.92646 11.5368H11.0658V8.3974C11.0658 8.05207 11.3484 7.76953 11.6937 7.76953C12.039 7.76953 12.3216 8.05207 12.3216 8.3974V11.5368H15.4609C15.8063 11.5368 16.0888 11.8193 16.0888 12.1646C16.0888 12.51 15.8063 12.7925 15.4609 12.7925Z" fill="white"/>
</g>
<defs>
<clipPath id="clip0_1_20307">
<rect width="15.069" height="15.069" fill="white" transform="translate(4.15942 4.62891)"/>
</clipPath>
</defs>
</svg>
