<svg width="8" height="8" viewBox="0 0 8 8" fill="none" xmlns="http://www.w3.org/2000/svg">
<path d="M7.67492 0.19599C7.44742 -0.0315103 7.07992 -0.0315103 6.85242 0.19599L3.99992 3.04266L1.14742 0.190156C0.919922 -0.0373437 0.552422 -0.0373437 0.324922 0.190156C0.0974219 0.417656 0.0974219 0.785156 0.324922 1.01266L3.17742 3.86516L0.324922 6.71766C0.0974219 6.94516 0.0974219 7.31266 0.324922 7.54016C0.552422 7.76766 0.919922 7.76766 1.14742 7.54016L3.99992 4.68766L6.85242 7.54016C7.07992 7.76766 7.44742 7.76766 7.67492 7.54016C7.90242 7.31266 7.90242 6.94516 7.67492 6.71766L4.82242 3.86516L7.67492 1.01266C7.89659 0.79099 7.89659 0.417656 7.67492 0.19599Z" fill="#979797"/>
</svg>
