<svg width="24" height="25" viewBox="0 0 24 25" fill="none" xmlns="http://www.w3.org/2000/svg">
<path d="M3 5.5C3 3.84315 4.34315 2.5 6 2.5H15.7574C16.553 2.5 17.3161 2.81607 17.8787 3.37868L20.1213 5.62132C20.6839 6.18393 21 6.94699 21 7.74264V19.5C21 21.1569 19.6569 22.5 18 22.5H6C4.34315 22.5 3 21.1569 3 19.5V5.5Z" fill="#E6007E"/>
<path fill-rule="evenodd" clip-rule="evenodd" d="M7 11.5C7 10.9477 7.44772 10.5 8 10.5H16C16.5523 10.5 17 10.9477 17 11.5C17 12.0523 16.5523 12.5 16 12.5H8C7.44772 12.5 7 12.0523 7 11.5Z" fill="#FFD7EE"/>
<path fill-rule="evenodd" clip-rule="evenodd" d="M7 15.5C7 14.9477 7.44772 14.5 8 14.5H12C12.5523 14.5 13 14.9477 13 15.5C13 16.0523 12.5523 16.5 12 16.5H8C7.44772 16.5 7 16.0523 7 15.5Z" fill="#FFD7EE"/>
<path d="M17.7071 3.20711L20.2929 5.79289C20.7456 6.24565 21 6.85971 21 7.5H18C16.8954 7.5 16 6.60457 16 5.5V2.5C16.6403 2.5 17.2544 2.75435 17.7071 3.20711Z" fill="#FFD7EE"/>
</svg>
