<svg width="21" height="17" viewBox="0 0 21 17" fill="none" xmlns="http://www.w3.org/2000/svg">
<path d="M18.375 0.789062H2.375C1.275 0.789062 0.385 1.68906 0.385 2.78906L0.375 14.7891C0.375 15.8891 1.275 16.7891 2.375 16.7891H18.375C19.475 16.7891 20.375 15.8891 20.375 14.7891V2.78906C20.375 1.68906 19.475 0.789062 18.375 0.789062ZM17.975 5.03906L10.905 9.45906C10.585 9.65906 10.165 9.65906 9.845 9.45906L2.775 5.03906C2.525 4.87906 2.375 4.60906 2.375 4.31906C2.375 3.64906 3.105 3.24906 3.675 3.59906L10.375 7.78906L17.075 3.59906C17.645 3.24906 18.375 3.64906 18.375 4.31906C18.375 4.60906 18.225 4.87906 17.975 5.03906Z" fill="#140432"/>
</svg>
