<svg width="20" height="21" viewBox="0 0 20 21" fill="none" xmlns="http://www.w3.org/2000/svg">
<g clip-path="url(#clip0_1_15229)">
<path d="M17.5 0.773438H2.5C1.12125 0.773438 0 1.89469 0 3.27344V18.2734C0 19.6522 1.12125 20.7734 2.5 20.7734H17.5C18.8787 20.7734 20 19.6522 20 18.2734V3.27344C20 1.89469 18.8787 0.773438 17.5 0.773438Z" fill="#1976D2"/>
<path d="M16.875 10.7734H13.75V8.27344C13.75 7.58344 14.31 7.64844 15 7.64844H16.25V4.52344H13.75C11.6788 4.52344 10 6.20219 10 8.27344V10.7734H7.5V13.8984H10V20.7734H13.75V13.8984H15.625L16.875 10.7734Z" fill="#FAFAFA"/>
</g>
<defs>
<clipPath id="clip0_1_15229">
<rect width="20" height="20" fill="white" transform="translate(0 0.773438)"/>
</clipPath>
</defs>
</svg>
