<svg width="25" height="25" viewBox="0 0 25 25" fill="none" xmlns="http://www.w3.org/2000/svg">
<path d="M3.5 13.375V19.501C3.5 21.1579 4.84315 22.501 6.5 22.501H18.5C20.1569 22.501 21.5 21.1579 21.5 19.501V13.375C21.1804 13.4573 20.8453 13.501 20.5 13.501H4.5C4.1547 13.501 3.81962 13.4573 3.5 13.375Z" fill="#E6007E"/>
<path d="M2.5 8.5C2.5 7.39543 3.39543 6.5 4.5 6.5H20.5C21.6046 6.5 22.5 7.39543 22.5 8.5V9.5C22.5 10.6046 21.6046 11.5 20.5 11.5H4.5C3.39543 11.5 2.5 10.6046 2.5 9.5V8.5Z" fill="#E6007E"/>
<path fill-rule="evenodd" clip-rule="evenodd" d="M12.5 4L11.3111 2.51391C10.7984 1.87306 10.0223 1.5 9.20156 1.5H9C7.61929 1.5 6.5 2.61929 6.5 4C6.5 5.38071 7.61929 6.5 9 6.5H11.5V22.5H13.5V6.5H16C17.3807 6.5 18.5 5.38071 18.5 4C18.5 2.61929 17.3807 1.5 16 1.5H15.7984C14.9777 1.5 14.2016 1.87306 13.6889 2.51391L12.5 4ZM10.3388 4.5L9.74939 3.7633C9.61625 3.59688 9.41468 3.5 9.20156 3.5H9C8.72386 3.5 8.5 3.72386 8.5 4C8.5 4.27614 8.72386 4.5 9 4.5H10.3388ZM14.6612 4.5L15.2506 3.7633C15.3837 3.59688 15.5853 3.5 15.7984 3.5H16C16.2761 3.5 16.5 3.72386 16.5 4C16.5 4.27614 16.2761 4.5 16 4.5H14.6612Z" fill="#FFD7EE"/>
</svg>
