<svg width="21" height="21" viewBox="0 0 21 21" fill="none" xmlns="http://www.w3.org/2000/svg">
<path d="M16.5833 11.4453H4.91667C4 11.4453 3.25 12.1953 3.25 13.112V16.4453C3.25 17.362 4 18.112 4.91667 18.112H16.5833C17.5 18.112 18.25 17.362 18.25 16.4453V13.112C18.25 12.1953 17.5 11.4453 16.5833 11.4453Z" fill="#E6007E"/>
<path d="M16.5833 3.11328H4.91667C4 3.11328 3.25 3.86328 3.25 4.77995V8.11328C3.25 9.02995 4 9.77995 4.91667 9.77995H16.5833C17.5 9.77995 18.25 9.02995 18.25 8.11328V4.77995C18.25 3.86328 17.5 3.11328 16.5833 3.11328Z" fill="#E6007E"/>
</svg>
