<svg width="13" height="13" viewBox="0 0 13 13" fill="none" xmlns="http://www.w3.org/2000/svg">
<path d="M6.54183 0.6875C3.32183 0.6875 0.708496 3.30083 0.708496 6.52083C0.708496 9.74083 3.32183 12.3542 6.54183 12.3542C9.76183 12.3542 12.3752 9.74083 12.3752 6.52083C12.3752 3.30083 9.76183 0.6875 6.54183 0.6875ZM6.54183 9.4375C6.221 9.4375 5.9585 9.175 5.9585 8.85417V6.52083C5.9585 6.2 6.221 5.9375 6.54183 5.9375C6.86266 5.9375 7.12516 6.2 7.12516 6.52083V8.85417C7.12516 9.175 6.86266 9.4375 6.54183 9.4375ZM7.12516 4.77083H5.9585V3.60417H7.12516V4.77083Z" fill="#76768D"/>
</svg>
