<svg width="20" height="21" viewBox="0 0 20 21" fill="none" xmlns="http://www.w3.org/2000/svg">
<g clip-path="url(#clip0_1_15224)">
<path d="M1.25025 2.24828C-0.321419 3.88078 0.00024743 5.61495 0.00024743 10.8833C0.00024743 15.2583 -0.763086 19.6441 3.23191 20.6766C4.47941 20.9974 15.5327 20.9974 16.7786 20.6749C18.4419 20.2458 19.7952 18.8966 19.9802 16.5441C20.0061 16.2158 20.0061 5.55662 19.9794 5.22162C19.7827 2.71578 18.2402 1.27162 16.2077 0.979116C15.7419 0.911616 15.6486 0.891616 13.2586 0.887449C4.78108 0.891616 2.92275 0.514116 1.25025 2.24828Z" fill="url(#paint0_linear_1_15224)"/>
<path d="M9.99785 3.50322C6.97202 3.50322 4.09869 3.23405 3.00119 6.05072C2.54785 7.21405 2.61369 8.72489 2.61369 10.8882C2.61369 12.7866 2.55285 14.5707 3.00119 15.7249C4.09619 18.5432 6.99285 18.2732 9.99619 18.2732C12.8937 18.2732 15.8812 18.5749 16.992 15.7249C17.4462 14.5499 17.3795 13.0616 17.3795 10.8882C17.3795 8.00322 17.5387 6.14072 16.1395 4.74239C14.7229 3.32572 12.807 3.50322 9.99452 3.50322H9.99785ZM9.33619 4.83405C15.6479 4.82405 16.4512 4.12239 16.0079 13.8699C15.8504 17.3174 13.2254 16.9391 9.99869 16.9391C4.11535 16.9391 3.94619 16.7707 3.94619 10.8849C3.94619 4.93072 4.41285 4.83739 9.33619 4.83239V4.83405ZM13.9395 6.05989C13.4504 6.05989 13.0537 6.45655 13.0537 6.94572C13.0537 7.43489 13.4504 7.83155 13.9395 7.83155C14.4287 7.83155 14.8254 7.43489 14.8254 6.94572C14.8254 6.45655 14.4287 6.05989 13.9395 6.05989ZM9.99785 7.09572C7.90369 7.09572 6.20619 8.79405 6.20619 10.8882C6.20619 12.9824 7.90369 14.6799 9.99785 14.6799C12.092 14.6799 13.7887 12.9824 13.7887 10.8882C13.7887 8.79405 12.092 7.09572 9.99785 7.09572ZM9.99785 8.42655C13.252 8.42655 13.2562 13.3499 9.99785 13.3499C6.74452 13.3499 6.73952 8.42655 9.99785 8.42655Z" fill="white"/>
</g>
<defs>
<linearGradient id="paint0_linear_1_15224" x1="1.2886" y1="19.61" x2="19.8765" y2="3.52243" gradientUnits="userSpaceOnUse">
<stop stop-color="#FFDD55"/>
<stop offset="0.5" stop-color="#FF543E"/>
<stop offset="1" stop-color="#C837AB"/>
</linearGradient>
<clipPath id="clip0_1_15224">
<rect width="20" height="20" fill="white" transform="translate(0 0.886719)"/>
</clipPath>
</defs>
</svg>
