<svg width="116" height="23" viewBox="0 0 116 23" fill="none" xmlns="http://www.w3.org/2000/svg">
<path d="M12.5391 18.1133H15.7266L9.72656 1.20312H6.31641L0.316406 18.1133H3.43359L4.875 13.7422H11.0977L12.5391 18.1133ZM7.94531 4.19141H8.02734L10.3828 11.4102H5.57812L7.94531 4.19141ZM17.25 18.1133H20.168V10.5078C20.168 9.00781 21.1523 7.91797 22.5586 7.91797C23.918 7.91797 24.7617 8.77344 24.7617 10.1562V18.1133H27.5977V10.4375C27.5977 8.94922 28.5586 7.91797 29.9648 7.91797C31.3945 7.91797 32.1914 8.78516 32.1914 10.3086V18.1133H35.1094V9.59375C35.1094 7.10938 33.5039 5.45703 31.0547 5.45703C29.2617 5.45703 27.7852 6.41797 27.1875 7.95312H27.1172C26.6602 6.35938 25.4062 5.45703 23.6484 5.45703C21.9609 5.45703 20.6484 6.40625 20.1094 7.84766H20.0508V5.69141H17.25V18.1133ZM41.9883 16.1094C40.7227 16.1094 39.8789 15.4648 39.8789 14.4453C39.8789 13.4609 40.6875 12.8281 42.0938 12.7344L44.9648 12.5586V13.5078C44.9648 15.0078 43.6406 16.1094 41.9883 16.1094ZM41.1094 18.3125C42.7031 18.3125 44.2617 17.4805 44.9766 16.1328H45.0352V18.1133H47.8477V9.55859C47.8477 7.0625 45.8438 5.43359 42.7617 5.43359C39.5977 5.43359 37.6172 7.09766 37.4883 9.41797H40.1953C40.3828 8.38672 41.2617 7.71875 42.6445 7.71875C44.0859 7.71875 44.9648 8.46875 44.9648 9.76953V10.6602L41.6836 10.8477C38.6602 11.0352 36.9609 12.3594 36.9609 14.5625C36.9609 16.8008 38.707 18.3125 41.1094 18.3125ZM49.8633 18.1133H59.7656V15.8398H53.4844V15.7812L59.6602 7.61328V5.69141H49.9219V7.96484H56.2969V8.01172L49.8633 16.3438V18.1133ZM66.9492 7.69531C68.625 7.69531 69.75 8.92578 69.8086 10.6836H64.0078C64.125 8.94922 65.3086 7.69531 66.9492 7.69531ZM69.8203 14.3984C69.5039 15.4297 68.4727 16.1094 67.1133 16.1094C65.2031 16.1094 63.9844 14.7734 63.9844 12.7812V12.6055H72.668V11.6562C72.668 7.88281 70.4648 5.43359 66.9375 5.43359C63.3516 5.43359 61.0781 8.02344 61.0781 11.9492C61.0781 15.9102 63.3281 18.3594 67.0547 18.3594C69.9961 18.3594 72.1758 16.7422 72.5508 14.3984H69.8203Z" fill="#E6007E"/>
<path d="M82.4531 12.5469V9.94531H74.7539V12.5469H82.4531ZM85.125 18.1133H88.043V5.69141H85.125V18.1133ZM86.5664 3.81641C87.4688 3.81641 88.1719 3.10156 88.1719 2.23438C88.1719 1.35547 87.4688 0.652344 86.5664 0.652344C85.6875 0.652344 84.9727 1.35547 84.9727 2.23438C84.9727 3.10156 85.6875 3.81641 86.5664 3.81641ZM90.4922 18.1133H93.4102V10.918C93.4102 9.13672 94.4766 7.92969 96.1523 7.92969C97.8164 7.92969 98.6367 8.91406 98.6367 10.6719V18.1133H101.555V10.0859C101.555 7.21484 99.9961 5.45703 97.2539 5.45703C95.3438 5.45703 94.0195 6.34766 93.3516 7.82422H93.293V5.69141H90.4922V18.1133ZM109.383 15.8047C107.543 15.8047 106.371 14.3281 106.371 11.8672C106.371 9.42969 107.543 7.88281 109.383 7.88281C111.246 7.88281 112.453 9.45312 112.453 11.8672C112.453 14.293 111.246 15.8047 109.383 15.8047ZM109.371 22.8008C112.992 22.8008 115.371 20.8789 115.371 17.9141V5.69141H112.512V7.82422H112.465C111.75 6.39453 110.32 5.48047 108.551 5.48047C105.375 5.48047 103.383 7.92969 103.383 11.8555C103.383 15.7227 105.422 18.125 108.492 18.125C110.273 18.125 111.738 17.2344 112.383 15.8984H112.453V17.9961C112.453 19.5781 111.363 20.6445 109.465 20.6445C108.082 20.6445 107.016 20 106.699 19.0508H103.805C104.098 21.2305 106.301 22.8008 109.371 22.8008Z" fill="white"/>
</svg>
