<svg width="21" height="21" viewBox="0 0 21 21" fill="none" xmlns="http://www.w3.org/2000/svg">
<g clip-path="url(#clip0_1_20286)">
<path d="M13.834 1.51562L12.667 4.75115C13.7441 8.30597 13.7441 13.5821 12.667 17.1371L13.834 20.3723C17.7172 18.9991 20.5001 15.2975 20.5001 10.9437C20.5001 6.59078 17.7172 2.88884 13.834 1.51562Z" fill="#518D51"/>
<path d="M13.8339 4.75228V1.51671C12.791 1.14788 11.6694 0.945312 10.5 0.945312C12.042 0.945312 9.90395 6.17108 13.8339 4.75228Z" fill="#E4E4E4"/>
<path d="M10.5 20.9453C11.6693 20.9453 12.791 20.7427 13.8339 20.3739V17.1387C9.94337 16.7503 10.5 20.9453 10.5 20.9453Z" fill="#E4E4E4"/>
<path d="M0.5 10.9451C0.5 15.3133 3.30166 19.0251 7.20525 20.387V1.50391C3.30166 2.86604 0.5 6.57747 0.5 10.9451Z" fill="#589F58"/>
<path d="M13.834 4.75391V17.1398C14.9113 13.5849 14.9113 8.30868 13.834 4.75391Z" fill="#589F58"/>
<path d="M13.834 17.1382V4.75228C13.1531 2.50482 12.042 0.945312 10.5001 0.945312C9.34524 0.945312 8.23714 1.14361 7.20532 1.50379V20.3868C8.23714 20.747 9.34524 20.945 10.5001 20.945C12.042 20.945 13.1531 19.3855 13.834 17.1382Z" fill="#F3F4F5"/>
</g>
<defs>
<clipPath id="clip0_1_20286">
<rect width="20" height="20" fill="white" transform="translate(0.5 0.945312)"/>
</clipPath>
</defs>
</svg>
