<svg width="65" height="65" viewBox="0 0 65 65" fill="none" xmlns="http://www.w3.org/2000/svg">
<path d="M32.5 0.179688C14.767 0.179688 0.375 14.5717 0.375 32.3047C0.375 50.0377 14.767 64.4297 32.5 64.4297C50.233 64.4297 64.625 50.0377 64.625 32.3047C64.625 14.5717 50.233 0.179688 32.5 0.179688ZM32.5 9.81719C37.8328 9.81719 42.1375 14.1219 42.1375 19.4547C42.1375 24.7874 37.8328 29.0922 32.5 29.0922C27.1673 29.0922 22.8625 24.7874 22.8625 19.4547C22.8625 14.1219 27.1673 9.81719 32.5 9.81719ZM32.5 55.4347C24.4688 55.4347 17.3691 51.3227 13.225 45.0904C13.3214 38.6976 26.075 35.1959 32.5 35.1959C38.8929 35.1959 51.6786 38.6976 51.775 45.0904C47.6309 51.3227 40.5312 55.4347 32.5 55.4347Z" fill="#F6F7F7"/>
</svg>
