<svg width="25" height="25" viewBox="0 0 25 25" fill="none" xmlns="http://www.w3.org/2000/svg">
<path fill-rule="evenodd" clip-rule="evenodd" d="M3.5 7.16228C3.5 5.87099 4.32629 4.72457 5.55132 4.31623L11.5513 2.31623C12.1671 2.11096 12.8329 2.11096 13.4487 2.31623L19.4487 4.31623C20.6737 4.72457 21.5 5.87099 21.5 7.16228V12.5C21.5 18.002 15.9398 21.3417 13.5601 22.5192C12.8875 22.8519 12.1125 22.8519 11.4399 22.5192C9.06019 21.3417 3.5 18.002 3.5 12.5V7.16228Z" fill="#FFD7EE"/>
<circle cx="12.5" cy="9.5" r="3" fill="#E6007E"/>
<path d="M18.8926 18.643C17.1177 20.5827 14.8627 21.8748 13.5603 22.5192C12.8877 22.8519 12.1128 22.8519 11.4402 22.5192C10.1378 21.8748 7.88274 20.5827 6.10791 18.643C7.20091 16.2012 9.6519 14.5 12.5002 14.5C15.3486 14.5 17.7996 16.2012 18.8926 18.643Z" fill="#E6007E"/>
</svg>
