<svg width="24" height="25" viewBox="0 0 24 25" fill="none" xmlns="http://www.w3.org/2000/svg">
<path d="M7 12.5H8.1802C8.65688 12.5 9.06729 12.8365 9.16078 13.3039L10 17.5L5.5547 20.4635C4.89015 20.9066 4 20.4302 4 19.6315V15.5C4 13.8431 5.34315 12.5 7 12.5Z" fill="#FFD7EE"/>
<path d="M17 12.5H15.8198C15.3431 12.5 14.9327 12.8365 14.8392 13.3039L14 17.5L18.4453 20.4635C19.1099 20.9066 20 20.4302 20 19.6315V15.5C20 13.8431 18.6569 12.5 17 12.5Z" fill="#FFD7EE"/>
<path d="M13.1662 20.5H10.8343C10.3606 20.5 9.94783 20.838 9.98754 21.31C10.0501 22.0534 10.4007 23.0925 11.8044 23.4553C11.9323 23.4883 12.0682 23.4883 12.196 23.4553C13.5998 23.0925 13.9504 22.0534 14.0129 21.31C14.0526 20.838 13.6399 20.5 13.1662 20.5Z" fill="#FFD7EE"/>
<path d="M6.99995 8.5C7.7498 6.25067 10.1861 3.72024 11.3583 2.59474C11.7197 2.24777 12.2803 2.24777 12.6416 2.59474C13.8139 3.72024 16.2502 6.25066 16.9999 8.5C17.7732 10.8198 16.8307 14.9868 16.1286 17.4724C15.7824 18.698 14.6476 19.5 13.3741 19.5H10.6172C9.34782 19.5 8.21578 18.7032 7.8678 17.4824C7.16224 15.0072 6.21616 10.8511 6.99995 8.5Z" fill="#E6007E"/>
<circle cx="12" cy="10.5" r="2" fill="#FFD7EE"/>
</svg>
