<svg width="11" height="10" viewBox="0 0 11 10" fill="none" xmlns="http://www.w3.org/2000/svg">
<path d="M0.625 3.53097V5.69764C0.625 5.99555 0.86875 6.2393 1.16667 6.2393H2.79167L4.57375 8.02139C4.915 8.36264 5.5 8.11889 5.5 7.6368V1.58639C5.5 1.1043 4.915 0.860554 4.57375 1.2018L2.79167 2.9893H1.16667C0.86875 2.9893 0.625 3.23305 0.625 3.53097ZM7.9375 4.6143C7.9375 3.65555 7.385 2.83222 6.58333 2.43139V6.79181C7.385 6.39639 7.9375 5.57305 7.9375 4.6143ZM6.58333 0.524721V0.633054C6.58333 0.838887 6.71875 1.01764 6.90833 1.09347C8.30583 1.65139 9.29167 3.0218 9.29167 4.6143C9.29167 6.2068 8.30583 7.57722 6.90833 8.13514C6.71333 8.21097 6.58333 8.38972 6.58333 8.59556V8.70389C6.58333 9.04514 6.92458 9.28347 7.23875 9.16431C9.075 8.46556 10.375 6.6943 10.375 4.6143C10.375 2.5343 9.075 0.763054 7.23875 0.0643039C6.92458 -0.0602795 6.58333 0.183471 6.58333 0.524721V0.524721Z" fill="#299B01"/>
</svg>
