<svg width="140" height="132" viewBox="0 0 140 132" fill="none" xmlns="http://www.w3.org/2000/svg">
<path d="M98.8347 49.7185L98.1704 49.9675C97.9745 50.0105 97.8001 50.1521 97.6041 50.1951C96.7655 50.5857 96.2094 51.3275 95.8925 52.2235C95.5209 53.3381 95.7804 54.5209 96.4865 55.399C96.7906 55.8488 96.9204 56.4402 96.7346 56.9975C96.6251 57.4348 96.298 57.8165 95.9277 58.001C95.8297 58.0225 95.7318 58.044 95.6554 58.1641C95.4594 58.2071 95.2851 58.3486 95.0891 58.3916C94.2505 58.7822 93.6944 59.5241 93.3775 60.4201C93.0058 61.5347 93.2653 62.7175 93.9715 63.5956C94.2756 64.0454 94.4054 64.6368 94.2195 65.1941C94.1101 65.6313 93.783 66.013 93.4127 66.1976C93.3147 66.2191 93.2167 66.2406 93.1404 66.3606C92.9444 66.4036 92.7701 66.5452 92.5741 66.5882C91.7355 66.9788 91.1794 67.7207 90.8624 68.6167C90.4908 69.7313 90.7503 70.914 91.4565 71.7922C91.7606 72.242 91.8903 72.8333 91.7045 73.3906C91.595 73.8279 91.268 74.2096 90.8977 74.3941C90.7997 74.4156 90.7017 74.4371 90.6253 74.5572C90.5274 74.5787 90.5274 74.5787 90.4294 74.6002C90.0591 74.7847 89.8516 75.2435 90.0361 75.6162C90.1442 76.1091 90.7207 76.3958 91.1889 76.1898C91.3849 76.1468 91.5593 76.0052 91.7552 75.9622C92.5938 75.5716 93.15 74.8297 93.4669 73.9337C93.8385 72.8191 93.579 71.6364 92.8728 70.7582C92.5687 70.3084 92.439 69.717 92.6248 69.1597C92.7343 68.7225 93.0613 68.3408 93.4316 68.1563C93.5296 68.1348 93.6276 68.1133 93.704 67.9932C93.8999 67.9502 94.0743 67.8086 94.2702 67.7656C95.1089 67.375 95.665 66.6332 95.9819 65.7372C96.3535 64.6226 96.094 63.4398 95.3879 62.5617C95.0838 62.1119 94.954 61.5205 95.1398 60.9632C95.2493 60.5259 95.5764 60.1442 95.9467 59.9597C96.0447 59.9382 96.1426 59.9167 96.219 59.7966C96.415 59.7536 96.5893 59.6121 96.7853 59.5691C97.6239 59.1785 98.18 58.4366 98.4969 57.5406C98.8686 56.426 98.6091 55.2432 97.9029 54.3651C97.5988 53.9153 97.469 53.3239 97.6549 52.7666C97.7643 52.3294 98.0914 51.9477 98.4617 51.7631C98.5597 51.7416 98.6577 51.7201 98.734 51.6001L99.3983 51.351C99.4963 51.3295 99.4963 51.3295 99.5942 51.308C99.9646 51.1235 100.172 50.6647 99.9875 50.292C99.803 49.9192 99.3246 49.611 98.8347 49.7185Z" fill="#6097FD"/>
<path d="M44.9302 65.1907C45.4239 64.9423 45.5473 64.3215 45.177 63.8248C45.0536 63.5765 44.6833 63.3281 44.313 63.3281C44.0661 63.3281 43.9427 63.3281 43.8192 63.4523C42.5849 64.3215 42.2146 65.9357 42.8318 67.1774C42.9552 67.4257 42.9552 67.7982 42.8318 68.0466C42.7083 68.2949 42.4615 68.5433 42.0912 68.5433C41.1037 68.6674 40.3631 69.2883 39.8693 70.0333C39.3756 70.7783 39.3756 71.8958 39.8693 72.765C39.9928 73.0134 39.9928 73.3859 39.8693 73.6342C39.7459 73.8826 39.7459 74.1309 39.7459 74.3792C39.7459 74.6276 39.9928 74.8759 40.2396 75.0001C40.3631 75.1242 40.4865 75.1242 40.7334 75.1242C41.1037 75.1242 41.474 74.8759 41.5974 74.6276C41.9677 73.7584 41.9677 72.765 41.5974 72.02C41.474 71.7717 41.474 71.3992 41.5974 71.1508C41.7209 70.9025 41.9677 70.6541 42.338 70.6541C43.3255 70.53 44.0661 69.9091 44.5599 69.1641C45.0536 68.2949 45.0536 67.3016 44.5599 66.4324C44.4364 65.9357 44.6833 65.439 44.9302 65.1907Z" fill="#6097FD"/>
<path d="M60.9771 46.6886C60.7302 46.3161 60.2365 46.1919 59.8662 46.3161C59.7427 46.3161 59.6193 46.4403 59.6193 46.4403C58.6318 47.0611 58.0147 48.1786 57.8912 49.296C57.7678 50.4135 58.1381 51.6552 58.8787 52.5243C59.3724 53.021 59.4959 53.6418 59.3724 54.2626C59.249 54.8834 58.7553 55.3801 58.1381 55.6284C56.9037 56.1251 56.0397 57.1184 55.6694 58.4842C55.4225 59.7258 55.6694 61.0916 56.5334 62.0849C57.0272 62.5816 57.1506 63.2024 57.0272 63.8232C56.9037 64.4441 56.41 64.9407 55.7928 65.1891C54.5585 65.6857 53.6944 66.679 53.3241 68.0448C53.0773 69.2865 53.3241 70.6523 54.1882 71.6456C54.435 71.8939 54.8054 72.0181 55.1757 71.8939C55.2991 71.8939 55.4225 71.7698 55.546 71.6456C55.9163 71.2731 56.0397 70.6523 55.6694 70.1556C55.1757 69.659 55.0522 69.0381 55.1757 68.4173C55.2991 67.7965 55.7928 67.2998 56.41 67.0515C57.6444 66.5549 58.5084 65.5615 58.8787 64.1957C59.1256 62.9541 58.8787 61.5883 58.0147 60.595C57.5209 60.0983 57.3975 59.4775 57.5209 58.8567C57.6444 58.2359 58.1381 57.7392 58.7553 57.4909C59.9896 56.9942 60.8537 56.0009 61.224 54.6351C61.4708 53.3935 61.224 52.0276 60.3599 51.0343C59.9896 50.6618 59.7427 50.041 59.8662 49.4202C59.9896 48.7994 60.2365 48.3027 60.7302 48.0544C60.9771 47.9302 61.1005 47.6819 61.224 47.4336C61.1005 47.1852 61.1005 46.9369 60.9771 46.6886Z" fill="url(#paint0_linear_1_14273)"/>
<path d="M86.7187 53.029C86.4718 52.6565 85.978 52.4081 85.4843 52.5323C85.3609 52.5323 85.2374 52.6565 85.2374 52.6565C83.2625 53.8982 82.6453 56.2574 83.6328 58.3683C84.0031 58.9891 83.8796 59.7341 83.5093 60.355C83.2625 60.8517 82.7687 61.2242 82.275 61.3483C82.1516 61.3483 82.0281 61.3483 81.9047 61.4725C81.6578 61.4725 81.4109 61.5967 81.1641 61.5967C80.0532 61.9692 79.0657 62.59 78.5719 63.7076C77.8313 64.9493 77.8313 66.5635 78.4485 67.8052C78.6954 68.426 78.6954 69.171 78.3251 69.7919C78.2016 70.0402 78.2016 70.4127 78.2016 70.6611C78.3251 70.9094 78.4485 71.1578 78.6954 71.2819C78.9422 71.4061 79.3126 71.4061 79.5594 71.4061C79.8063 71.2819 80.0532 71.1578 80.3 70.9094C81.0406 69.6677 81.0406 68.1777 80.4235 66.8118C80.0532 66.191 80.1766 65.4459 80.5469 64.8251C80.7938 64.3284 81.2875 63.9559 81.7813 63.8317C81.9047 63.8317 82.0281 63.8317 82.1516 63.7076C82.3984 63.7076 82.6453 63.5834 82.8922 63.5834C84.0031 63.2109 84.9906 62.59 85.6077 61.4725C86.3483 60.2308 86.3483 58.6166 85.7312 57.3749C85.2374 56.3816 85.6077 55.1399 86.5952 54.6432C86.9655 54.2707 87.089 53.5257 86.7187 53.029Z" fill="url(#paint1_linear_1_14273)"/>
<path d="M70.7804 56.2384C71.1507 55.8659 71.1507 55.1208 70.6569 54.7483C70.4101 54.5 70.0398 54.5 69.6695 54.5C69.4226 54.5 69.2992 54.6242 69.1757 54.8725C68.1882 55.99 68.1882 57.8526 69.2992 58.9701C69.546 59.2185 69.546 59.4668 69.546 59.8393C69.4226 60.2118 69.2992 60.4601 68.9289 60.5843C68.0648 60.9568 67.3242 61.826 67.0773 62.6952C66.8305 63.6886 67.2008 64.6819 67.8179 65.4269C68.0648 65.6753 68.0648 65.9236 68.0648 66.2961C68.0648 66.5445 68.0648 66.7928 68.1882 67.0411C68.3117 67.2895 68.5585 67.4136 68.8054 67.5378C68.9289 67.5378 69.1757 67.5378 69.2992 67.5378C69.6695 67.4136 69.9163 67.1653 70.0398 66.7928C70.2866 65.7994 69.9163 64.8061 69.2992 64.0611C69.0523 63.8127 69.0523 63.5644 69.0523 63.1919C69.1757 62.8194 69.2992 62.571 69.6695 62.4469C70.5335 62.0744 71.2741 61.2052 71.521 60.336C71.7679 59.3426 71.3976 58.3493 70.7804 57.6042C70.4101 57.1076 70.5335 56.6109 70.7804 56.2384Z" fill="#6097FD"/>
<path d="M81.9606 73.6328V130.252H31.7226C29.2539 130.252 27.4023 128.265 27.4023 125.906V73.6328H81.9606Z" fill="#E9EDF5"/>
<path d="M105.66 73.6328V125.906C105.66 128.389 103.685 130.252 101.34 130.252H81.8374V73.6328H105.66Z" fill="#DAE1ED"/>
<path opacity="0.2" d="M105.66 73.6328V125.906C105.66 128.389 103.685 130.252 101.34 130.252H81.8374V73.6328H105.66Z" fill="url(#paint2_linear_1_14273)"/>
<path d="M47.3989 89.5255C44.5599 88.9047 40.3631 93.3748 38.5116 95.1132C37.1538 96.3549 35.6726 97.7207 34.3148 99.0866C33.0804 100.328 31.9695 101.943 30.2414 102.688C28.143 103.557 25.9212 102.812 23.8228 102.067C23.3291 101.943 22.9588 101.694 22.5884 101.57C20.8604 100.949 19.2557 100.204 17.6511 99.2108C16.0464 98.2174 13.3308 96.3549 13.4543 94.1198C13.5777 91.8848 17.2807 89.8981 17.2807 89.8981L26.1681 93.1265C25.9212 93.1265 25.1806 93.6231 24.9337 93.6231C24.44 93.8715 23.9462 94.1198 23.5759 94.6165C23.3291 95.1132 23.2056 95.734 23.3291 96.2307C23.4525 96.479 23.5759 96.7274 23.6994 96.8516C23.8228 96.8516 23.9462 96.8516 24.0697 96.8516C25.0571 96.7274 26.7852 94.989 27.279 94.4923C29.5008 92.6298 32.5867 90.0222 35.796 88.408C41.1037 85.8005 42.7083 87.9113 47.3989 89.5255Z" fill="url(#paint3_linear_1_14273)"/>
<path opacity="0.5" d="M51.3488 117.587L50.3613 88.036L60.1127 86.4219L60.7299 118.332L59.6189 117.835L58.8783 111.751" fill="url(#paint4_linear_1_14273)"/>
<path d="M60.6066 130.252H50.8552C50.8552 123.548 50.8552 116.718 50.8552 110.014C50.8552 109.393 50.8552 108.896 50.8552 108.275C50.8552 105.792 50.7318 103.185 50.238 100.701C49.6209 97.1005 49.2506 92.5064 47.5225 89.4023C47.8928 89.5265 48.1396 89.6507 48.5099 89.7748C52.0896 90.7682 56.9035 92.5065 58.755 95.9831C59.6191 97.5972 59.7425 99.708 59.866 101.57C59.9894 103.06 60.1128 104.426 60.2363 105.916C60.2363 106.04 60.2363 106.289 60.2363 106.413C60.4831 110.138 60.6066 113.987 60.73 117.712C60.73 118.829 60.73 130.252 60.6066 130.252Z" fill="url(#paint5_linear_1_14273)"/>
<path opacity="0.4" d="M89.3672 107.902V90.3951L97.3905 89.8984L96.6499 115.476L93.8108 106.661L89.3672 107.902Z" fill="url(#paint6_linear_1_14273)"/>
<path opacity="0.2" d="M97.3905 115.477L96.8967 130.253H89.3672V115.973L97.3905 115.477Z" fill="url(#paint7_linear_1_14273)"/>
<path d="M139.605 95.8574C139.605 95.8574 142.074 102.066 134.668 103.928C130.841 104.921 124.422 107.777 120.596 106.536C115.905 105.046 113.684 100.452 111.091 95.9816C109.61 93.4983 108.006 91.1392 105.29 90.6425C104.426 90.5184 103.685 90.6425 103.068 90.8909C100.846 91.8842 99.4886 94.74 98.6246 96.9749C97.5136 99.5824 96.8965 102.438 96.8965 105.294C97.0199 109.888 98.0074 114.358 98.1308 118.952C98.1308 121.435 98.1308 123.919 97.884 126.278C97.7605 127.519 97.7605 129.258 97.0199 130.375C97.0199 130.375 97.0199 130.375 96.8965 130.499H89.2435C90.3544 126.774 91.9591 121.187 89.8607 111.875C88.5029 105.791 88.7498 96.9749 93.1934 92.0083C95.5387 89.2767 99.4886 87.9109 103.068 87.5384C104.303 87.4143 105.537 87.4143 106.524 87.5384C112.696 88.1593 116.276 91.8842 118.744 95.9816C121.213 99.9549 124.669 107.529 127.632 106.287C130.594 105.046 131.829 97.2233 131.829 97.2233L139.605 95.8574Z" fill="url(#paint8_linear_1_14273)"/>
<path d="M23.6994 94.6169C23.4525 95.1136 23.3291 95.7344 23.4525 96.2311C23.5759 96.4794 23.6994 96.7278 23.8228 96.8519C23.9462 96.8519 24.0697 96.8519 24.1931 96.8519L23.8228 102.067C23.3291 101.943 22.9588 101.695 22.5884 101.57C20.8604 100.95 19.2557 100.205 17.6511 99.2112C16.0464 98.2178 13.3308 96.3553 13.4543 94.1202C13.5777 91.8852 17.2807 89.8984 17.2807 89.8984L26.1681 93.1268C25.9212 93.1268 25.1806 93.6235 24.9337 93.6235C24.44 93.7477 23.9462 93.996 23.6994 94.6169Z" fill="url(#paint9_linear_1_14273)"/>
<path d="M60.2362 106.042L50.7317 108.401C50.7317 105.918 50.6082 103.31 50.1145 100.827C49.4973 97.2259 49.127 92.6316 47.3989 89.5273C47.7692 89.6515 48.0161 89.7757 48.3864 89.8999C51.966 90.8932 56.78 92.6316 58.6315 96.1083C59.4955 97.7225 59.619 99.8334 59.7424 101.696C59.9893 103.186 60.1127 104.552 60.2362 106.042Z" fill="url(#paint10_linear_1_14273)"/>
<path d="M49.2505 52.0264C49.9322 52.0264 50.4848 51.4704 50.4848 50.7847C50.4848 50.0989 49.9322 49.543 49.2505 49.543C48.5688 49.543 48.0161 50.0989 48.0161 50.7847C48.0161 51.4704 48.5688 52.0264 49.2505 52.0264Z" fill="url(#paint11_linear_1_14273)"/>
<path d="M51.5958 51.159L12.0966 85.6767L0 77.4818L22.0949 49.1724L32.8337 28.8094L49.9912 0.5L60.73 7.20487L51.5958 51.159Z" fill="#CED7E8"/>
<path d="M49.9912 0.5L39.6226 43.585L0 77.4818L19.1324 33.776L49.9912 0.5Z" fill="#E9EDF5"/>
<path d="M51.5957 51.159L39.6226 43.585L43.8193 25.9537L46.0412 16.6413L49.9911 0.5L60.7299 7.20487L57.1503 23.967L55.4222 32.7827L51.5957 51.159Z" fill="#DAE1ED"/>
<path d="M55.4221 32.7849L44.1895 25.7073L43.8192 25.9556L29.1305 34.7716L25.0571 32.2883L45.7942 16.3945L46.0411 16.6429L57.1502 23.9689L55.4221 32.7849Z" fill="url(#paint12_linear_1_14273)"/>
<path d="M27.1555 24.9604L30.118 18.7522L33.5742 12.0473C33.9445 11.3023 34.9319 10.9298 35.6725 11.1782L41.3506 13.1648C42.338 13.5373 42.8318 14.5306 42.338 15.5239L41.3506 18.0072C41.2271 18.2555 40.9803 18.628 40.7334 18.7522L29.2539 26.947C29.0071 27.0712 28.7602 27.3195 28.6368 27.692L24.6868 36.8802C24.5634 37.0043 24.5634 37.1285 24.44 37.2527C23.6994 38.1218 20.1197 42.4676 18.2682 46.565C16.0464 51.4074 13.5777 55.2565 12.2199 56.2498C11.973 56.4981 11.7262 56.6223 11.4793 56.7465C10.8621 57.1189 9.99808 57.1189 9.50434 56.6223L4.44351 52.4007C3.82633 51.904 3.57946 50.9107 4.0732 50.1657C4.69038 49.1724 5.55442 47.8066 6.91221 46.3167C9.50434 43.4609 14.1949 39.736 14.1949 39.736L23.4525 32.0378C23.5759 31.9136 23.8228 31.6653 23.9462 31.4169L27.1555 24.9604Z" fill="url(#paint13_linear_1_14273)"/>
<path d="M26.6617 28.5627C29.2538 26.7001 32.9569 21.1125 36.1662 19.0016C39.3755 16.8907 46.4113 14.4073 49.3737 14.904C52.4596 15.2765 56.6564 15.649 60.8532 19.0016C56.0392 19.7466 56.0392 19.7466 56.0392 19.7466L60.236 24.3409C60.236 24.3409 53.9408 20.2433 47.8925 22.1059C41.8442 23.9684 37.2771 26.8243 33.8209 28.9352C30.3648 31.0461 28.8835 32.0394 28.8835 32.0394L26.168 30.9219L26.6617 28.5627Z" fill="url(#paint14_linear_1_14273)"/>
<path d="M22.4651 32.2879C22.3417 32.5363 21.9714 32.6604 21.7245 32.6604C16.1699 33.0329 14.3184 32.6604 12.22 32.0396C10.1216 31.4188 7.8998 30.9221 6.29515 31.7913C5.18423 32.2879 4.07332 33.0329 3.45614 33.4054C3.08584 33.6537 2.9624 34.0262 2.9624 34.3987L3.33271 42.7177C3.33271 43.3385 3.82645 43.711 4.44362 43.711L9.25758 43.3385C9.38102 43.3385 9.62789 43.2144 9.75132 43.2144L19.9964 36.5095C20.1199 36.5095 20.1199 36.3853 20.2433 36.3853L24.8104 31.2946C24.9338 31.1705 24.9338 31.1705 24.9338 31.0463L28.8837 22.9756C29.1306 22.6031 29.0072 22.1065 28.7603 21.8581C27.6494 20.6165 24.8104 17.7607 23.2057 15.7741C22.0948 14.4083 21.2308 13.6633 20.6136 13.2908C20.1199 12.9183 19.5027 13.0425 19.2558 13.5391L13.0841 21.1131C12.8372 21.4856 12.8372 21.8581 12.9606 22.2306C13.3309 22.9756 14.195 24.2173 15.9231 25.3347C18.0215 26.7005 21.3542 28.8113 23.0823 29.8046C23.576 30.1771 23.6995 30.798 23.3292 31.2946L22.4651 32.2879Z" fill="url(#paint15_linear_1_14273)"/>
<path d="M34.5615 66.057L24.6867 56.3722L30.2413 32.1602L25.7977 33.0293L16.54 63.3254L26.9086 72.6377" fill="url(#paint16_linear_1_14273)"/>
<path d="M26.5385 36.6314L22.2183 32.4096C22.2183 32.4096 24.0698 28.0637 25.3041 27.0703C26.7854 28.312 28.6369 31.6646 30.1181 32.0371C29.0072 34.893 27.6494 35.7622 27.6494 35.7622L26.5385 36.6314Z" fill="url(#paint17_linear_1_14273)"/>
<path d="M61.7359 39.7216C61.8593 39.9699 62.1062 40.2183 62.3531 40.0941C62.4765 40.0941 62.5999 39.9699 62.7234 39.8458L63.8343 37.7349C64.0811 37.2382 64.4515 36.9898 64.9452 36.8657L67.167 36.369C67.4139 36.2448 67.6608 35.9965 67.5373 35.7482C67.5373 35.624 67.4139 35.4998 67.2905 35.3756L65.1921 34.2581C64.6983 34.0098 64.4515 33.6373 64.328 33.1406L63.8343 30.9055C63.7108 30.6572 63.464 30.4089 63.2171 30.533C63.0937 30.533 62.9702 30.6572 62.8468 30.7814L61.7359 32.8923C61.489 33.3889 61.1187 33.6373 60.625 33.7614L58.4031 34.2581C58.1563 34.3823 57.9094 34.6306 58.0328 34.879C58.0328 35.0031 58.1563 35.1273 58.2797 35.2515L60.3781 36.369C60.8718 36.6173 61.1187 36.9898 61.2421 37.4865L61.7359 39.7216Z" fill="url(#paint18_linear_1_14273)"/>
<path d="M98.7359 36.7216C98.8593 36.9699 99.1062 37.2183 99.3531 37.0941C99.4765 37.0941 99.5999 36.9699 99.7234 36.8458L100.834 34.7349C101.081 34.2382 101.451 33.9898 101.945 33.8657L104.167 33.369C104.414 33.2448 104.661 32.9965 104.537 32.7482C104.537 32.624 104.414 32.4998 104.29 32.3756L102.192 31.2581C101.698 31.0098 101.451 30.6373 101.328 30.1406L100.834 27.9055C100.711 27.6572 100.464 27.4089 100.217 27.533C100.094 27.533 99.9702 27.6572 99.8468 27.7814L98.7359 29.8922C98.489 30.3889 98.1187 30.6373 97.625 30.7614L95.4031 31.2581C95.1563 31.3823 94.9094 31.6306 95.0328 31.879C95.0328 32.0031 95.1563 32.1273 95.2797 32.2515L97.3781 33.369C97.8718 33.6173 98.1187 33.9898 98.2421 34.4865L98.7359 36.7216Z" fill="url(#paint19_linear_1_14273)"/>
<path d="M85.664 42.5913C85.5406 42.8396 85.664 43.088 85.9109 43.2121C86.0344 43.2121 86.1578 43.2121 86.2812 43.2121L88.0093 42.0946C88.3796 41.8463 88.8734 41.8463 89.2437 41.9705L91.2186 42.5913C91.4655 42.7155 91.7124 42.5913 91.8358 42.343C91.8358 42.2188 91.8358 42.0946 91.8358 41.9705L90.7249 40.2321C90.478 39.8596 90.478 39.3629 90.6014 38.9904L91.2186 37.0037C91.3421 36.7553 91.2186 36.507 90.9717 36.3828C90.8483 36.3828 90.7249 36.3828 90.6014 36.3828L88.8734 37.5003C88.5031 37.7487 88.0093 37.7487 87.639 37.6245L85.664 37.0037C85.4172 36.8795 85.1703 37.1278 85.0469 37.252C85.0469 37.3762 85.0469 37.5003 85.0469 37.6245L86.1578 39.3629C86.4047 39.7354 86.4047 40.2321 86.2812 40.6046L85.664 42.5913Z" fill="#6097FD"/>
<path d="M69.6172 49.336C69.4937 49.5843 69.6172 49.8327 69.864 49.8327C69.9875 49.8327 70.1109 49.8327 70.2343 49.8327L71.839 48.8393C72.2093 48.591 72.5796 48.591 72.9499 48.7151L74.8014 49.2118C75.0483 49.336 75.2952 49.2118 75.2952 48.9635C75.2952 48.8393 75.2952 48.7151 75.2952 48.591L74.3077 46.9767C74.0608 46.6042 74.0608 46.2317 74.1843 45.8592L74.678 43.9967C74.8014 43.7483 74.678 43.5 74.4311 43.5C74.3077 43.5 74.1843 43.5 74.0608 43.5L72.4562 44.4934C72.0859 44.7417 71.7156 44.7417 71.3453 44.6175L69.4937 44.1208C69.2469 43.9967 69 44.1208 69 44.3692C69 44.4934 69 44.6175 69 44.7417L69.9875 46.3559C70.2343 46.7284 70.2343 47.1009 70.1109 47.4734L69.6172 49.336Z" fill="#6097FD"/>
<path d="M83.6172 27.336C83.4937 27.5843 83.6172 27.8327 83.864 27.8327C83.9875 27.8327 84.1109 27.8327 84.2343 27.8327L85.839 26.8393C86.2093 26.591 86.5796 26.591 86.9499 26.7151L88.8014 27.2118C89.0483 27.336 89.2952 27.2118 89.2952 26.9635C89.2952 26.8393 89.2952 26.7151 89.2952 26.591L88.3077 24.9767C88.0608 24.6042 88.0608 24.2317 88.1843 23.8592L88.678 21.9967C88.8014 21.7483 88.678 21.5 88.4311 21.5C88.3077 21.5 88.1843 21.5 88.0608 21.5L86.4562 22.4934C86.0859 22.7417 85.7156 22.7417 85.3453 22.6175L83.4937 22.1208C83.2469 21.9967 83 22.1208 83 22.3692C83 22.4934 83 22.6175 83 22.7417L83.9875 24.3559C84.2343 24.7284 84.2343 25.1009 84.1109 25.4734L83.6172 27.336Z" fill="#6097FD"/>
<path d="M99.864 47.5777C99.7406 47.826 99.9875 48.0744 100.234 48.1985C100.358 48.1985 100.481 48.1985 100.605 48.1985L102.58 46.9568C102.95 46.7085 103.444 46.5843 103.937 46.7085L106.159 47.3293C106.406 47.4535 106.653 47.2052 106.776 46.9568C106.776 46.8327 106.776 46.7085 106.776 46.5843L105.542 44.5976C105.172 44.3493 105.172 43.7284 105.295 43.3559L105.912 41.1208C106.036 40.8725 105.789 40.6242 105.542 40.5C105.419 40.5 105.295 40.5 105.172 40.5L103.197 41.7417C102.826 41.99 102.333 42.1142 101.839 41.99L99.6172 41.3692C99.3703 41.245 99.1234 41.4934 99 41.7417C99 41.8659 99 41.99 99 42.1142L100.234 44.1009C100.481 44.4734 100.605 44.9701 100.481 45.4668L99.864 47.5777Z" fill="#6097FD"/>
<path d="M73.864 37.5777C73.7406 37.826 73.9875 38.0744 74.2343 38.1985C74.3578 38.1985 74.4812 38.1985 74.6047 38.1985L76.5796 36.9568C76.9499 36.7085 77.4437 36.5843 77.9374 36.7085L80.1592 37.3293C80.4061 37.4535 80.653 37.2052 80.7764 36.9568C80.7764 36.8327 80.7764 36.7085 80.7764 36.5843L79.5421 34.5976C79.1718 34.3493 79.1717 33.7284 79.2952 33.3559L79.9124 31.1208C80.0358 30.8725 79.7889 30.6242 79.5421 30.5C79.4186 30.5 79.2952 30.5 79.1717 30.5L77.1968 31.7417C76.8265 31.99 76.3327 32.1142 75.839 31.99L73.6172 31.3692C73.3703 31.245 73.1234 31.4934 73 31.7417C73 31.8659 73 31.99 73 32.1142L74.2343 34.1009C74.4812 34.4734 74.6047 34.9701 74.4812 35.4668L73.864 37.5777Z" fill="url(#paint20_linear_1_14273)"/>
<path d="M13.3311 130.25H124.423" stroke="#B1B9CC" stroke-width="2" stroke-miterlimit="10" stroke-linecap="round" stroke-linejoin="round"/>
<path d="M4.32031 130.25H9.01084" stroke="#B1B9CC" stroke-width="2" stroke-miterlimit="10" stroke-linecap="round" stroke-linejoin="round"/>
<defs>
<linearGradient id="paint0_linear_1_14273" x1="50.8924" y1="60.9142" x2="63.9077" y2="57.37" gradientUnits="userSpaceOnUse">
<stop stop-color="#FF66A9"/>
<stop offset="1" stop-color="#F53689"/>
</linearGradient>
<linearGradient id="paint1_linear_1_14273" x1="79.1622" y1="71.0159" x2="85.0897" y2="58.7831" gradientUnits="userSpaceOnUse">
<stop stop-color="#FF66A9"/>
<stop offset="1" stop-color="#F53689"/>
</linearGradient>
<linearGradient id="paint2_linear_1_14273" x1="94.5743" y1="103.533" x2="107.932" y2="129.479" gradientUnits="userSpaceOnUse">
<stop offset="0.00289017" stop-color="#606673" stop-opacity="0"/>
<stop offset="1" stop-color="#373C47"/>
</linearGradient>
<linearGradient id="paint3_linear_1_14273" x1="13.483" y1="95.1588" x2="47.3702" y2="95.1588" gradientUnits="userSpaceOnUse">
<stop stop-color="#FF66A9"/>
<stop offset="1" stop-color="#F53689"/>
</linearGradient>
<linearGradient id="paint4_linear_1_14273" x1="55.1357" y1="86.9533" x2="56.1282" y2="112.255" gradientUnits="userSpaceOnUse">
<stop offset="0.00289017" stop-color="#606673" stop-opacity="0"/>
<stop offset="1" stop-color="#373C47"/>
</linearGradient>
<linearGradient id="paint5_linear_1_14273" x1="52.3238" y1="106.931" x2="46.3329" y2="91.5309" gradientUnits="userSpaceOnUse">
<stop stop-color="#FF66A9"/>
<stop offset="1" stop-color="#F53689"/>
</linearGradient>
<linearGradient id="paint6_linear_1_14273" x1="93.0431" y1="90.3139" x2="93.8377" y2="110.568" gradientUnits="userSpaceOnUse">
<stop offset="0.00289017" stop-color="#606673" stop-opacity="0"/>
<stop offset="1" stop-color="#373C47"/>
</linearGradient>
<linearGradient id="paint7_linear_1_14273" x1="93.0941" y1="115.801" x2="93.5546" y2="127.543" gradientUnits="userSpaceOnUse">
<stop offset="0.00289017" stop-color="#606673" stop-opacity="0"/>
<stop offset="1" stop-color="#373C47"/>
</linearGradient>
<linearGradient id="paint8_linear_1_14273" x1="89.244" y1="108.769" x2="140.001" y2="108.769" gradientUnits="userSpaceOnUse">
<stop stop-color="#FF66A9"/>
<stop offset="1" stop-color="#F53689"/>
</linearGradient>
<linearGradient id="paint9_linear_1_14273" x1="22.418" y1="91.3901" x2="17.8829" y2="99.0263" gradientUnits="userSpaceOnUse">
<stop stop-color="#FF66A9" stop-opacity="0"/>
<stop offset="0.4964" stop-color="#FF8FC0"/>
<stop offset="1" stop-color="#F53689" stop-opacity="0"/>
</linearGradient>
<linearGradient id="paint10_linear_1_14273" x1="55.9562" y1="105.519" x2="49.9647" y2="90.1189" gradientUnits="userSpaceOnUse">
<stop stop-color="#FF66A9"/>
<stop offset="1" stop-color="#F53689"/>
</linearGradient>
<linearGradient id="paint11_linear_1_14273" x1="49.149" y1="49.5119" x2="49.2869" y2="52.078" gradientUnits="userSpaceOnUse">
<stop stop-color="#83A6FF"/>
<stop offset="1" stop-color="#5A78FF"/>
</linearGradient>
<linearGradient id="paint12_linear_1_14273" x1="47.3532" y1="17.5091" x2="39.2171" y2="34.4926" gradientUnits="userSpaceOnUse">
<stop stop-color="#FF66A9"/>
<stop offset="1" stop-color="#F53689"/>
</linearGradient>
<linearGradient id="paint13_linear_1_14273" x1="7.9283" y1="55.4441" x2="38.8048" y2="11.4245" gradientUnits="userSpaceOnUse">
<stop stop-color="#FF66A9"/>
<stop offset="1" stop-color="#F53689"/>
</linearGradient>
<linearGradient id="paint14_linear_1_14273" x1="35.8227" y1="37.4772" x2="52.8024" y2="13.2708" gradientUnits="userSpaceOnUse">
<stop stop-color="#FF66A9"/>
<stop offset="1" stop-color="#F53689"/>
</linearGradient>
<linearGradient id="paint15_linear_1_14273" x1="-32.6923" y1="-35.3154" x2="-13.75" y2="-9.39557" gradientUnits="userSpaceOnUse">
<stop stop-color="#FF66A9"/>
<stop offset="1" stop-color="#F53689"/>
</linearGradient>
<linearGradient id="paint16_linear_1_14273" x1="18.8823" y1="71.8023" x2="32.0424" y2="46.2373" gradientUnits="userSpaceOnUse">
<stop stop-color="#FF66A9"/>
<stop offset="1" stop-color="#F53689"/>
</linearGradient>
<linearGradient id="paint17_linear_1_14273" x1="24.2211" y1="35.0454" x2="28.3005" y2="29.2297" gradientUnits="userSpaceOnUse">
<stop stop-color="#FF66A9"/>
<stop offset="1" stop-color="#F53689"/>
</linearGradient>
<linearGradient id="paint18_linear_1_14273" x1="59.9664" y1="37.5664" x2="65.549" y2="33.2053" gradientUnits="userSpaceOnUse">
<stop stop-color="#FF66A9"/>
<stop offset="1" stop-color="#F53689"/>
</linearGradient>
<linearGradient id="paint19_linear_1_14273" x1="96.9196" y1="34.4922" x2="102.502" y2="30.1312" gradientUnits="userSpaceOnUse">
<stop stop-color="#FF66A9"/>
<stop offset="1" stop-color="#F53689"/>
</linearGradient>
<linearGradient id="paint20_linear_1_14273" x1="74.5598" y1="36.0915" x2="79.0408" y2="32.5345" gradientUnits="userSpaceOnUse">
<stop stop-color="#FF66A9"/>
<stop offset="1" stop-color="#F53689"/>
</linearGradient>
</defs>
</svg>
