<svg width="25" height="25" viewBox="0 0 25 25" fill="none" xmlns="http://www.w3.org/2000/svg">
<path fill-rule="evenodd" clip-rule="evenodd" d="M2.5 7.5C2.5 5.84315 3.84315 4.5 5.5 4.5H19.5C21.1569 4.5 22.5 5.84315 22.5 7.5V9.5C22.5 10.0523 22.0255 10.4793 21.541 10.7445C20.9207 11.0841 20.5 11.7429 20.5 12.5C20.5 13.2571 20.9207 13.9159 21.541 14.2555C22.0255 14.5207 22.5 14.9477 22.5 15.5V17.5C22.5 19.1569 21.1569 20.5 19.5 20.5H5.5C3.84315 20.5 2.5 19.1569 2.5 17.5V15.5C2.5 14.9477 2.97452 14.5207 3.45897 14.2555C4.07933 13.9159 4.5 13.2571 4.5 12.5C4.5 11.7429 4.07933 11.0841 3.45897 10.7445C2.97452 10.4793 2.5 10.0523 2.5 9.5V7.5Z" fill="#E6007E"/>
<path d="M11.5554 9.21739C11.8667 8.32183 13.1333 8.32183 13.4446 9.21739L13.6822 9.90107C13.8195 10.2961 14.1882 10.564 14.6064 10.5725L15.3301 10.5873C16.278 10.6066 16.6694 11.8111 15.9138 12.3839L15.337 12.8212C15.0038 13.0739 14.8629 13.5074 14.984 13.9077L15.1936 14.6005C15.4682 15.508 14.4435 16.2524 13.6653 15.7109L13.0712 15.2975C12.7279 15.0586 12.2721 15.0586 11.9288 15.2975L11.3347 15.7109C10.5565 16.2524 9.53181 15.508 9.80636 14.6005L10.016 13.9077C10.1371 13.5074 9.99625 13.0739 9.66295 12.8212L9.08616 12.3839C8.33063 11.8111 8.72201 10.6066 9.66994 10.5873L10.3936 10.5725C10.8118 10.564 11.1805 10.2961 11.3178 9.90107L11.5554 9.21739Z" fill="#FFD7EE"/>
</svg>
