<svg width="20" height="21" viewBox="0 0 20 21" fill="none" xmlns="http://www.w3.org/2000/svg">
<g clip-path="url(#clip0_1_15227)">
<path d="M20 4.13078C19.2563 4.45703 18.4637 4.67328 17.6375 4.77828C18.4875 4.27078 19.1363 3.47328 19.4412 2.51203C18.6488 2.98453 17.7738 3.31828 16.8412 3.50453C16.0887 2.70328 15.0162 2.20703 13.8462 2.20703C11.5763 2.20703 9.74875 4.04953 9.74875 6.30828C9.74875 6.63328 9.77625 6.94578 9.84375 7.24328C6.435 7.07703 3.41875 5.44328 1.3925 2.95453C1.03875 3.56828 0.83125 4.27078 0.83125 5.02703C0.83125 6.44703 1.5625 7.70578 2.6525 8.43453C1.99375 8.42203 1.3475 8.23078 0.8 7.92953C0.8 7.94203 0.8 7.95828 0.8 7.97453C0.8 9.96703 2.22125 11.622 4.085 12.0033C3.75125 12.0945 3.3875 12.1383 3.01 12.1383C2.7475 12.1383 2.4825 12.1233 2.23375 12.0683C2.765 13.692 4.2725 14.8858 6.065 14.9245C4.67 16.0158 2.89875 16.6733 0.98125 16.6733C0.645 16.6733 0.3225 16.6583 0 16.617C1.81625 17.7883 3.96875 18.457 6.29 18.457C13.835 18.457 17.96 12.207 17.96 6.78953C17.96 6.60828 17.9538 6.43328 17.945 6.25953C18.7588 5.68203 19.4425 4.96078 20 4.13078Z" fill="#03A9F4"/>
</g>
<defs>
<clipPath id="clip0_1_15227">
<rect width="20" height="20" fill="white" transform="translate(0 0.332031)"/>
</clipPath>
</defs>
</svg>
